HIERARCHY
ROOT Joint0
{
	OFFSET 0 0 0
	CHANNELS 6 Xposition Yposition Zposition Zrotation Xrotation Yrotation
	JOINT Joint1
	{
		OFFSET 0 0 0
		CHANNELS 6 Xposition Yposition Zposition Zrotation Xrotation Yrotation
	JOINT Joint2
	{
		OFFSET 0 0 0
		CHANNELS 6 Xposition Yposition Zposition Zrotation Xrotation Yrotation
	JOINT Joint3
	{
		OFFSET 0 0 0
		CHANNELS 6 Xposition Yposition Zposition Zrotation Xrotation Yrotation
	JOINT Joint4
	{
		OFFSET 0 0 0
		CHANNELS 6 Xposition Yposition Zposition Zrotation Xrotation Yrotation
	JOINT Joint5
	{
		OFFSET 0 0 0
		CHANNELS 6 Xposition Yposition Zposition Zrotation Xrotation Yrotation
	JOINT Joint6
	{
		OFFSET 0 0 0
		CHANNELS 6 Xposition Yposition Zposition Zrotation Xrotation Yrotation
	JOINT Joint7
	{
		OFFSET 0 0 0
		CHANNELS 6 Xposition Yposition Zposition Zrotation Xrotation Yrotation
	JOINT Joint8
	{
		OFFSET 0 0 0
		CHANNELS 6 Xposition Yposition Zposition Zrotation Xrotation Yrotation
	JOINT Joint9
	{
		OFFSET 0 0 0
		CHANNELS 6 Xposition Yposition Zposition Zrotation Xrotation Yrotation
	JOINT Joint10
	{
		OFFSET 0 0 0
		CHANNELS 6 Xposition Yposition Zposition Zrotation Xrotation Yrotation
	JOINT Joint11
	{
		OFFSET 0 0 0
		CHANNELS 6 Xposition Yposition Zposition Zrotation Xrotation Yrotation
	JOINT Joint12
	{
		OFFSET 0 0 0
		CHANNELS 6 Xposition Yposition Zposition Zrotation Xrotation Yrotation
	JOINT Joint13
	{
		OFFSET 0 0 0
		CHANNELS 6 Xposition Yposition Zposition Zrotation Xrotation Yrotation
	JOINT Joint14
	{
		OFFSET 0 0 0
		CHANNELS 6 Xposition Yposition Zposition Zrotation Xrotation Yrotation
	JOINT Joint15
	{
		OFFSET 0 0 0
		CHANNELS 6 Xposition Yposition Zposition Zrotation Xrotation Yrotation
	JOINT Joint16
	{
		OFFSET 0 0 0
		CHANNELS 6 Xposition Yposition Zposition Zrotation Xrotation Yrotation
	JOINT Joint17
	{
		OFFSET 0 0 0
		CHANNELS 6 Xposition Yposition Zposition Zrotation Xrotation Yrotation
	JOINT Joint18
	{
		OFFSET 0 0 0
		CHANNELS 6 Xposition Yposition Zposition Zrotation Xrotation Yrotation
	JOINT Joint19
	{
		OFFSET 0 0 0
		CHANNELS 6 Xposition Yposition Zposition Zrotation Xrotation Yrotation
	JOINT Joint20
	{
		OFFSET 0 0 0
		CHANNELS 6 Xposition Yposition Zposition Zrotation Xrotation Yrotation
	JOINT Joint21
	{
		OFFSET 0 0 0
		CHANNELS 6 Xposition Yposition Zposition Zrotation Xrotation Yrotation
	JOINT Joint22
	{
		OFFSET 0 0 0
		CHANNELS 6 Xposition Yposition Zposition Zrotation Xrotation Yrotation
	JOINT Joint23
	{
		OFFSET 0 0 0
		CHANNELS 6 Xposition Yposition Zposition Zrotation Xrotation Yrotation
	JOINT Joint24
	{
		OFFSET 0 0 0
		CHANNELS 6 Xposition Yposition Zposition Zrotation Xrotation Yrotation
	JOINT Joint25
	{
		OFFSET 0 0 0
		CHANNELS 6 Xposition Yposition Zposition Zrotation Xrotation Yrotation
	JOINT Joint26
	{
		OFFSET 0 0 0
		CHANNELS 6 Xposition Yposition Zposition Zrotation Xrotation Yrotation
	JOINT Joint27
	{
		OFFSET 0 0 0
		CHANNELS 6 Xposition Yposition Zposition Zrotation Xrotation Yrotation
	JOINT Joint28
	{
		OFFSET 0 0 0
		CHANNELS 6 Xposition Yposition Zposition Zrotation Xrotation Yrotation
	JOINT Joint29
	{
		OFFSET 0 0 0
		CHANNELS 6 Xposition Yposition Zposition Zrotation Xrotation Yrotation
	JOINT Joint30
	{
		OFFSET 0 0 0
		CHANNELS 6 Xposition Yposition Zposition Zrotation Xrotation Yrotation
	JOINT Joint31
	{
		OFFSET 0 0 0
		CHANNELS 6 Xposition Yposition Zposition Zrotation Xrotation Yrotation
	JOINT Joint32
	{
		OFFSET 0 0 0
		CHANNELS 6 Xposition Yposition Zposition Zrotation Xrotation Yrotation
	}
	}
	}
	}
	}
	}
	}
	}
	}
	}
	}
	}
	}
	}
	}
	}
	}
	}
	}
	}
	}
	}
	}
	}
	}
	}
	}
	}
	}
	}
	}
	}
}
MOTION
Frames: 4
Frame Time: 0.0333333
-1.222567 -59.463525 -44.525030 0.000000 0.000000 0.000000 0.875717 -61.424458 -43.751591 0.000000 0.000000 0.000000 0.980763 -61.273485 -42.525914 0.000000 0.000000 0.000000 0.907353 -61.343139 -42.844319 0.000000 0.000000 0.000000 -1.717551 -62.231743 -44.649419 0.000000 0.000000 0.000000 -1.630804 -62.123615 -46.039227 0.000000 0.000000 0.000000 -1.150282 -60.741013 -43.886936 0.000000 0.000000 0.000000 8.085623 -60.137165 -32.694122 0.000000 0.000000 0.000000 -7.219678 -55.945259 -31.684956 0.000000 0.000000 0.000000 2.875808 -58.319527 -39.249781 0.000000 0.000000 0.000000 -1.003600 -55.148387 -41.774744 0.000000 0.000000 0.000000 18.308792 -43.874684 -17.703967 0.000000 0.000000 0.000000 -14.425398 -49.702269 -12.865618 0.000000 0.000000 0.000000 23.643865 -23.999888 -15.906778 0.000000 0.000000 0.000000 -19.081838 -20.877671 -15.208612 0.000000 0.000000 0.000000 28.256392 -0.219108 -17.272566 0.000000 0.000000 0.000000 -24.130335 -0.562536 -24.103093 0.000000 0.000000 0.000000 28.605843 4.699222 -17.716239 0.000000 0.000000 0.000000 -23.329508 4.022246 -29.138625 0.000000 0.000000 0.000000 25.178739 6.304328 -21.189022 0.000000 0.000000 0.000000 -19.713263 2.175835 -31.810156 0.000000 0.000000 0.000000 27.422670 3.583258 -18.602766 0.000000 0.000000 0.000000 -22.466947 0.359518 -26.345420 0.000000 0.000000 0.000000 10.135757 0.224834 2.831903 0.000000 0.000000 0.000000 -9.957195 -0.546293 -2.644976 0.000000 0.000000 0.000000 13.897920 39.492461 5.101151 0.000000 0.000000 0.000000 -8.912861 31.155068 8.358039 0.000000 0.000000 0.000000 17.127740 72.059482 25.643271 0.000000 0.000000 0.000000 -16.352521 69.122875 28.148076 0.000000 0.000000 0.000000 15.401956 75.465739 27.961928 0.000000 0.000000 0.000000 -17.064027 72.347194 25.912258 0.000000 0.000000 0.000000 15.659405 78.376019 20.945750 0.000000 0.000000 0.000000 -18.691671 73.468983 16.929787 0.000000 0.000000 0.000000
-1.247601 -59.465182 -44.486973 0.000000 0.000000 0.000000 0.852075 -61.424762 -43.712217 0.000000 0.000000 0.000000 0.953982 -61.273813 -42.486373 0.000000 0.000000 0.000000 0.881189 -61.343396 -42.804345 0.000000 0.000000 0.000000 -1.740101 -62.232000 -44.593897 0.000000 0.000000 0.000000 -1.655479 -62.124455 -45.986199 0.000000 0.000000 0.000000 -1.173302 -60.740525 -43.835068 0.000000 0.000000 0.000000 8.073158 -60.138959 -32.682690 0.000000 0.000000 0.000000 -7.222231 -55.942047 -31.632295 0.000000 0.000000 0.000000 2.860023 -58.320791 -39.228329 0.000000 0.000000 0.000000 -1.019401 -55.151224 -41.740128 0.000000 0.000000 0.000000 18.311414 -43.877617 -17.707115 0.000000 0.000000 0.000000 -14.428838 -49.699256 -12.865762 0.000000 0.000000 0.000000 23.648320 -24.032187 -15.912485 0.000000 0.000000 0.000000 -19.067498 -20.866549 -15.211350 0.000000 0.000000 0.000000 28.201544 -0.309929 -17.292550 0.000000 0.000000 0.000000 -24.107178 -0.568435 -24.120222 0.000000 0.000000 0.000000 28.510970 4.601138 -17.750771 0.000000 0.000000 0.000000 -23.312008 4.011943 -29.162142 0.000000 0.000000 0.000000 25.022575 6.203317 -21.210523 0.000000 0.000000 0.000000 -19.687821 2.158078 -31.830066 0.000000 0.000000 0.000000 27.339327 3.487536 -18.617456 0.000000 0.000000 0.000000 -22.445533 0.352378 -26.359418 0.000000 0.000000 0.000000 10.134652 0.227228 2.830782 0.000000 0.000000 0.000000 -9.956052 -0.548680 -2.643351 0.000000 0.000000 0.000000 13.834953 39.425907 5.294884 0.000000 0.000000 0.000000 -8.996341 31.130263 8.636234 0.000000 0.000000 0.000000 16.990083 71.889490 26.452330 0.000000 0.000000 0.000000 -16.350640 68.962270 28.962848 0.000000 0.000000 0.000000 15.267484 75.295740 28.869006 0.000000 0.000000 0.000000 -17.057481 72.174317 26.806656 0.000000 0.000000 0.000000 15.553527 78.329170 22.002353 0.000000 0.000000 0.000000 -18.658379 73.458737 17.973399 0.000000 0.000000 0.000000
-1.200684 -59.478450 -44.438282 0.000000 0.000000 0.000000 0.896033 -61.434913 -43.658829 0.000000 0.000000 0.000000 0.997949 -61.284113 -42.434615 0.000000 0.000000 0.000000 0.924962 -61.352831 -42.752296 0.000000 0.000000 0.000000 -1.692322 -62.242508 -44.545922 0.000000 0.000000 0.000000 -1.609250 -62.134761 -45.935977 0.000000 0.000000 0.000000 -1.126435 -60.749543 -43.786561 0.000000 0.000000 0.000000 8.100841 -60.145402 -32.634118 0.000000 0.000000 0.000000 -7.182802 -55.947638 -31.597227 0.000000 0.000000 0.000000 2.901267 -58.332253 -39.180183 0.000000 0.000000 0.000000 -0.977865 -55.162489 -41.695750 0.000000 0.000000 0.000000 18.338822 -43.882513 -17.686906 0.000000 0.000000 0.000000 -14.414731 -49.698237 -12.837364 0.000000 0.000000 0.000000 23.649642 -24.062225 -15.905981 0.000000 0.000000 0.000000 -19.034448 -20.860530 -15.087035 0.000000 0.000000 0.000000 28.203395 -0.332063 -17.296508 0.000000 0.000000 0.000000 -24.099152 -0.532171 -23.847534 0.000000 0.000000 0.000000 28.515878 4.584928 -17.752944 0.000000 0.000000 0.000000 -23.305824 4.068957 -28.825781 0.000000 0.000000 0.000000 25.028482 6.197228 -21.212777 0.000000 0.000000 0.000000 -19.682121 2.226644 -31.513685 0.000000 0.000000 0.000000 27.340859 3.471265 -18.621327 0.000000 0.000000 0.000000 -22.438374 0.394074 -26.080728 0.000000 0.000000 0.000000 10.133636 0.231441 2.829548 0.000000 0.000000 0.000000 -9.954930 -0.552546 -2.642118 0.000000 0.000000 0.000000 13.829069 39.397216 5.282272 0.000000 0.000000 0.000000 -8.995441 31.092036 8.619408 0.000000 0.000000 0.000000 16.981433 71.891350 26.396540 0.000000 0.000000 0.000000 -16.357645 68.955481 28.825447 0.000000 0.000000 0.000000 15.261576 75.298905 28.803545 0.000000 0.000000 0.000000 -17.063996 72.170031 26.653451 0.000000 0.000000 0.000000 15.557422 78.324401 21.914805 0.000000 0.000000 0.000000 -18.668774 73.446512 17.754102 0.000000 0.000000 0.000000
-1.195929 -59.492296 -44.581699 0.000000 0.000000 0.000000 0.899723 -61.447364 -43.787172 0.000000 0.000000 0.000000 1.001037 -61.295539 -42.563546 0.000000 0.000000 0.000000 0.928279 -61.365122 -42.875713 0.000000 0.000000 0.000000 -1.690791 -62.251824 -44.673297 0.000000 0.000000 0.000000 -1.607860 -62.144858 -46.067864 0.000000 0.000000 0.000000 -1.125320 -60.758853 -43.914407 0.000000 0.000000 0.000000 8.104338 -60.148370 -32.716495 0.000000 0.000000 0.000000 -7.184057 -55.945504 -31.689587 0.000000 0.000000 0.000000 2.906786 -58.340347 -39.307672 0.000000 0.000000 0.000000 -0.975887 -55.169958 -41.835776 0.000000 0.000000 0.000000 18.340576 -43.879038 -17.743509 0.000000 0.000000 0.000000 -14.418152 -49.694008 -12.923822 0.000000 0.000000 0.000000 23.649205 -24.057437 -15.959089 0.000000 0.000000 0.000000 -19.032870 -20.850526 -15.244357 0.000000 0.000000 0.000000 28.172910 -0.327922 -17.478853 0.000000 0.000000 0.000000 -24.092671 -0.527573 -24.211258 0.000000 0.000000 0.000000 28.471071 4.588110 -17.973122 0.000000 0.000000 0.000000 -23.303662 4.069404 -29.270616 0.000000 0.000000 0.000000 24.962191 6.196184 -21.436051 0.000000 0.000000 0.000000 -19.677114 2.218802 -31.968403 0.000000 0.000000 0.000000 27.295884 3.474402 -18.803754 0.000000 0.000000 0.000000 -22.432543 0.397660 -26.464364 0.000000 0.000000 0.000000 10.133192 0.232937 2.835737 0.000000 0.000000 0.000000 -9.954493 -0.554587 -2.647581 0.000000 0.000000 0.000000 13.790596 39.366016 5.482899 0.000000 0.000000 0.000000 -8.981722 31.062776 8.725169 0.000000 0.000000 0.000000 16.883437 71.892208 26.528734 0.000000 0.000000 0.000000 -16.356418 68.945342 28.794608 0.000000 0.000000 0.000000 15.165986 75.300556 28.921255 0.000000 0.000000 0.000000 -17.061394 72.159880 26.606545 0.000000 0.000000 0.000000 15.514052 78.318727 21.926497 0.000000 0.000000 0.000000 -18.551609 73.445052 17.614526 0.000000 0.000000 0.000000
